<?xml version="1.0" encoding="utf-8"?>
<!-- Generator: Adobe Illustrator 24.3.0, SVG Export Plug-In . SVG Version: 6.00 Build 0)  -->
<svg version="1.1" id="Vrstva_1" xmlns="http://www.w3.org/2000/svg" xmlns:xlink="http://www.w3.org/1999/xlink" x="0px" y="0px"
	 viewBox="0 0 463.7 108.2" style="enable-background:new 0 0 463.7 108.2;" xml:space="preserve">
<style type="text/css">
	.st0{fill:#51AE32;}
</style>
<path d="M20.6,10.4v91.2H8.8V10.4H20.6z"/>
<path d="M112.1,88.1c3.5,2.3,9.7,4.7,15.7,4.7c8.7,0,12.7-4.3,12.7-9.7c0-5.7-3.4-8.8-12.2-12C116.5,66.8,111,60.3,111,52.5
	c0-10.6,8.5-19.2,22.6-19.2c6.6,0,12.4,1.9,16.1,4.1l-3,8.7c-2.6-1.6-7.3-3.8-13.4-3.8c-7,0-11,4.1-11,8.9c0,5.4,3.9,7.8,12.4,11.1
	c11.4,4.3,17.2,10,17.2,19.8c0,11.5-8.9,19.6-24.5,19.6c-7.2,0-13.8-1.8-18.4-4.5L112.1,88.1z"/>
<path d="M165.7,10.2h49.1v9.9h-37.3v30.3H212v9.7h-34.5v41.3h-11.8V10.2z"/>
<path d="M268.2,36.1l9.3,14.1c2.4,3.7,4.5,7,6.6,10.7h0.4c2.2-3.9,4.3-7.3,6.5-10.8l9.2-13.9h12.9l-22.3,31.7l23,33.8h-13.5
	l-9.6-14.7c-2.6-3.8-4.7-7.4-7-11.4h-0.3c-2.2,3.9-4.5,7.4-6.9,11.4l-9.5,14.7h-13.1l23.3-33.4L255,36.1H268.2z"/>
<path d="M329.9,69.7c0.3,16.1,10.6,22.7,22.5,22.7c8.5,0,13.7-1.5,18.1-3.4l2,8.5c-4.2,1.9-11.4,4.1-21.8,4.1
	c-20.2,0-32.2-13.3-32.2-33c0-19.8,11.6-35.3,30.7-35.3c21.4,0,27.1,18.8,27.1,30.9c0,2.4-0.3,4.3-0.4,5.5H329.9z M364.8,61.2
	c0.1-7.6-3.1-19.4-16.5-19.4c-12,0-17.3,11.1-18.3,19.4H364.8z"/>
<g>
	<path class="st0" d="M61.1,21.7c-4.2-0.1-7.6,2.3-8.7,6.1c-1.1,3.8,0.5,7.7,3.9,9.7c0.9,0.5,1.4,1,1.4,2.2c-0.1,14.3,0,28.5,0,42.8
		c0,2.5,0,16.3,0,18.9c2,0,3.7,0,5.8,0c0-1.1,0-13.3,0-14.3c0-15.8,0-31.5,0-47.3c0-1,0.1-1.6,1.1-2.2c3.6-1.8,5.3-5.7,4.4-9.5
		C68.1,24.6,64.7,21.8,61.1,21.7z"/>
	<path class="st0" d="M84.3,10.3c-1.3,1.4-2.5,2.7-3.8,4.1c6.7,7.4,8.7,18.7,0.1,28.9c1.3,1.3,2.5,2.6,3.9,4
		C95.3,36.8,94,19,84.3,10.3z"/>
	<path class="st0" d="M36.9,10.2C26,20.7,27,38.5,36.5,47c1.4-1.3,2.8-2.5,4.2-3.8c-3.7-4.1-5.8-8.9-5.8-14.5
		c0-5.6,2.3-10.3,5.8-14.2C39.3,13,38.1,11.6,36.9,10.2z"/>
	<path class="st0" d="M72.2,22.6c3,4.1,3.2,8.2,0,12.3c1.3,1.4,2.6,2.7,3.9,4.1c5.7-5.1,5.7-15,0-20.4
		C74.9,19.9,73.6,21.2,72.2,22.6z"/>
	<path class="st0" d="M45,19.6C39,25.7,39.9,35.5,45.2,40c1.2-1.4,2.4-2.8,3.3-3.8c-0.6-2.2-1.8-4.2-1.7-6.3c0-2.1,1.1-4.3,1.8-6.5
		C47.6,22.3,46.3,20.9,45,19.6z"/>
</g>
<path class="st0" d="M456.5,88.9V10.2h-12.4v40c-6.1-10-17.2-16.7-30-16.3c-17.8,0.5-33.3,15.4-32.8,34.8c0.4,18,15.3,33,33.9,32.9
	c12.3,0,23-6.6,28.9-16.3v3.6l0.8,12.7h12.4L456.5,88.9z M439.5,53.6c-3,0-6,0-8.9,0c-0.6-2-1.2-4.1-1.8-6.1c-0.6-2-1.5-3.9-2.6-5.7
	C432,44.3,436.3,48.2,439.5,53.6z M406.5,50.1c0.8-2.5,1.8-4.9,3.4-7c0.9-1.3,2-2.5,3.5-3.2c1.8-0.8,3.4-0.3,4.9,0.9
	c1.9,1.6,3.1,3.6,4.1,5.8c1,2.1,1.7,4.4,2.3,6.7c0,0.1,0,0.2,0,0.3c-6.4,0-12.7,0-19.1,0C405.9,52.4,406.2,51.3,406.5,50.1z
	 M404.1,41.8c-2.2,3.8-3.5,7.8-4.4,11.9c-3,0-5.9,0-9,0C393.9,48.2,398.3,44.3,404.1,41.8z M388,75.8c-1-3.4-1.4-7-1-10.5
	c0.2-1.9,0.7-3.7,1-5.5c0-0.3,0.1-0.5,0.5-0.4c3.3,0,6.6,0,9.9,0c0.1,0,0.2,0,0.3,0c-0.7,5.6-0.7,11.2,0,16.9c-0.1,0-0.3,0-0.4,0
	c-3.2,0-6.5,0-9.7,0C388.3,76.3,388.1,76.1,388,75.8z M390.7,81.9c3,0,5.8,0,8.7,0c0.3,0,0.3,0.2,0.4,0.4c0.5,1.8,1,3.6,1.6,5.4
	c0.7,2,1.5,3.9,2.6,5.7c0,0.1,0.1,0.1,0.2,0.3C398.3,91.2,393.9,87.3,390.7,81.9z M424.2,83.9c-0.8,2.9-1.9,5.7-3.6,8.2
	c-0.8,1.2-1.7,2.3-3,3.1c-1.7,1.1-3.5,1.1-5.1-0.1c-1.3-0.9-2.2-2.1-3.1-3.4c-1.9-2.9-3-6.2-3.8-9.6c0,0,0-0.1,0-0.2
	c6.4,0,12.7,0,19.1,0C424.5,82.6,424.3,83.3,424.2,83.9z M404.5,76.2c-0.8-5.6-0.8-11.2,0-16.9c7.1,0,14.2,0,21.3,0
	c0.7,4.5,1,10.7,0,16.9C418.7,76.2,411.6,76.2,404.5,76.2z M426.3,93.7c2.1-3.7,3.3-7.7,4.3-11.8c3,0,5.9,0,9,0
	C436.4,87.3,432,91.2,426.3,93.7z M442.1,76.2c-3.5,0-7,0-10.5,0c0.7-5.6,0.7-11.2,0-16.9c3.5,0,7,0,10.5,0
	C443.8,64.9,443.8,70.6,442.1,76.2z"/>
<path class="st0" d="M225.7,23.4c3.2,0,6.4,0,9.6,0v0l0.4,0l4.2,0c0,0,1,0,1.1-1.1l0-6h0c0,0,0,0,0,0c0-1.7,0-3.4,0-5.1
	c0-0.5-0.5-1.1-1.1-1.1c-4.7,0-9.5,0-14.2,0c-0.6,0-1.1,0.6-1.1,1.1c0,3.7,0,7.3,0,11C224.6,22.8,225.1,23.4,225.7,23.4z M226,14.8
	c0-0.1,0.2-0.2,0.3-0.3c0-0.1,0.1-0.1,0.2-0.1c0.8,0,1.7,0,2.5,0c0.1,0,0.1,0,0.1-0.1c0-0.3,0-0.6,0.1-0.9c0-0.1,0-0.3,0-0.4
	c0.4,0,0.9,0,1.3,0c0.1-0.5,0.1-1,0.2-1.4c0,0,0.1,0,0.1,0c1.4,0,2.7,0,4.1,0c0,0,0,0,0,0c0,0,0.1,0,0.1,0.1c0,0.3,0.1,0.7,0.1,1
	c0,0.1,0,0.2,0,0.4c0.5,0,0.9,0,1.3,0c0,0,0,0.1,0,0.1c0,0.4,0.1,0.8,0.1,1.2c0,0.1,0,0.1,0.1,0.1c0.8,0,1.7,0,2.5,0
	c0.1,0,0.1,0,0.2,0.1c0.1,0.1,0.2,0.2,0.2,0.2c0,0,0.1,0.1,0.1,0.1c0,0.5,0,1,0,1.5h0v0.4c0,0,0,0,0,0c0,0,0,0,0,0
	c0,0.1-0.2,0.1-0.3,0.1c-0.1,0-0.1,0.1-0.1,0.1c0,0,0,0,0,0c0,0.4,0,0.7,0,1.1c0,0,0,0,0,0.1c0,0.1,0,0.2,0,0.4c0,0.1,0,0.2,0,0.3
	c0,0.1,0.2,0.1,0.3,0.2c0,0,0,0,0.1,0.1v2.4c0,0-0.1,0.1-0.1,0.1l-0.3,0.3c0,0,0,0-0.1,0h-2.5l0-0.1c0-1.1,0-2.3,0-3.4
	c0,0,0-0.1,0-0.1c-0.2,0-0.5,0-0.7,0c0,1.2,0,2.4,0,3.5h-0.3v0c-0.1,0-0.2,0-0.4,0c0-1.2,0-2.4,0-3.6c-0.2,0-0.5,0-0.7,0
	c0,1.2,0,2.4,0,3.6c-0.2,0-0.5,0-0.7,0c0-1.2,0-2.4,0-3.6c-0.2,0-0.5,0-0.7,0c0,1.2,0,2.4,0,3.6c-0.2,0-0.5,0-0.7,0
	c0-1.2,0-2.4,0-3.6c-0.2,0-0.5,0-0.7,0c0,1.2,0,2.4,0,3.6c-0.2,0-0.5,0-0.7,0c0-1.2,0-2.4,0-3.6c-0.2,0-0.5,0-0.7,0
	c0,1.2,0,2.4,0,3.6c-0.2,0-0.5,0-0.7,0c0-1.2,0-2.4,0-3.6c-0.2,0-0.5,0-0.7,0c0,1.2,0,2.4,0,3.6c0,0,0,0,0,0c-0.8,0-1.6,0-2.4,0
	c0,0-0.1,0-0.1,0c-0.1-0.1-0.2-0.2-0.3-0.3c0,0-0.1-0.1-0.1-0.1c0-0.7,0-1.4,0-2.1c0-0.1,0-0.2,0-0.3c0-0.1,0.2-0.1,0.3-0.1
	c0.1,0,0.1-0.1,0.1-0.1c0-0.5,0-1,0-1.5c0-0.1,0-0.2,0-0.3c0-0.1-0.2-0.1-0.3-0.2c-0.1,0-0.1-0.1-0.1-0.1c0-0.5,0-1,0-1.5
	C226,15.1,226,14.9,226,14.8z"/>
<path class="st0" d="M241.4,48.6c0-0.1,0-0.2,0-0.3c0-0.3-0.1-0.6-0.1-0.8c-2.1,0-4.2,0-6.4,0c0,1.6,0,3.2,0,4.9c-1.4,0-2.8,0-4.3,0
	c0-1.6,0-3.2,0-4.9c-2.1,0-4.2,0-6.3,0c0,0,0,0,0,0.1c-0.1,0.5-0.1,1-0.2,1.5c0,0.1,0,0.1,0,0.2c0.3,1.7,0.7,3.5,1,5.2
	c0,0.2,0.1,0.4,0.1,0.6c1.8,0,3.6,0,5.3,0c0,0.4,0,0.8,0,1.3c-1.7,0-3.4,0-5.1,0c0.1,0.6,0.2,1.1,0.3,1.7c1.6,0,3.2,0,4.8,0
	c0,0.4,0,0.8,0,1.3c-1.5,0-3,0-4.5,0c0.1,0.6,0.2,1.1,0.3,1.7c1.4,0,2.8,0,4.1,0c0,0.4,0,0.8,0,1.3c-1.3,0-2.6,0-3.9,0
	c0.1,0.6,0.2,1.1,0.3,1.7c1.2,0,2.4,0,3.5,0c0,0.4,0,0.7,0,1.1v0c0,0.1,0,0.1,0,0.2c-1.1,0-2.2,0-3.3,0c0.1,0.6,0.2,1.1,0.3,1.7
	c1,0,2,0,3,0c0,0,0,0,0,0l0,0v34.5h4.3V66.8c1,0,1.9,0,2.9,0c0.1-0.6,0.2-1.1,0.4-1.7c-1.1,0-2.2,0-3.3,0V65c0-0.4,0-0.7,0-1.1
	c1.2,0,2.4,0,3.5,0c0.1-0.6,0.2-1.1,0.3-1.7c-1.3,0-2.6,0-3.9-0.1c0-0.4,0-0.8,0-1.3c1.4,0,2.8,0,4.1,0c0.1-0.6,0.2-1.1,0.3-1.7
	c-1.5,0-3,0-4.5-0.1c0-0.4,0-0.8,0-1.3c1.6,0,3.2,0,4.7,0c0.1-0.6,0.2-1.1,0.4-1.7c-1.7,0-3.4,0-5.1,0c0-0.4,0-0.8,0-1.3
	c1.8,0,3.6,0,5.3,0c0-0.1,0-0.1,0-0.2c0.4-1.8,0.7-3.5,1.1-5.3C241.5,49.2,241.5,48.9,241.4,48.6z"/>
<path class="st0" d="M225.7,46.6c1.7,0,3.4,0,5.1,0c0,0,0,0,0,0c0-0.4,0-0.8,0-1.2c0-0.1,0-0.1-0.1-0.1c-0.5-0.1-1-0.3-1.5-0.4
	c-0.1,0-0.1-0.1-0.1-0.1c0-2.3,0-4.6,0-7c0,0,0-0.1,0-0.1c-0.6,0-1.1,0-1.7,0c0-1.6,0-3.2,0-4.9c0,0-0.1,0-0.1,0c-0.5,0-1,0-1.4,0
	c0,0-0.1,0-0.1,0c0,0,0,0,0,0c0,0,0,0.1,0,0.1C225.7,37.5,225.7,42,225.7,46.6C225.7,46.6,225.7,46.6,225.7,46.6z"/>
<path class="st0" d="M234.1,50.7c0-2,0-3.9,0-5.9c0.6-0.1,1.1-0.3,1.7-0.4c0-2.2,0-4.4,0-6.5c-2,0-3.9,0-5.9-0.1c0,2.2,0,4.4,0,6.6
	c0.6,0.1,1.1,0.3,1.7,0.4c0,2,0,4,0,5.9C232.4,50.7,233.3,50.7,234.1,50.7z"/>
<path class="st0" d="M240,46.7c0-4.6,0-9.2,0.1-13.8c-0.5,0-1.1,0-1.7,0c0,1.6,0,3.2,0,4.9c-0.6,0-1.2,0-1.7,0c0,2.4,0,4.8,0,7.2
	c-0.5,0.1-1.1,0.3-1.6,0.4c-0.1,0-0.1,0-0.1,0.1c0,0.4,0,0.7,0,1.1c0,0,0,0.1,0,0.1C236.7,46.7,238.3,46.7,240,46.7z"/>
<path class="st0" d="M236.8,32.9c0,1.4,0,2.8,0,4.2c0.3,0,0.5,0,0.8,0c0-1.4,0-2.8,0-4.3C237.3,32.9,237,32.9,236.8,32.9z"/>
<path class="st0" d="M232.5,32.9c-0.3,0-0.6,0-0.8,0c0,1.4,0,2.8,0,4.2c0.2,0,0.5,0,0.7,0C232.4,35.7,232.5,34.3,232.5,32.9z"/>
<path class="st0" d="M234.2,32.9c-0.3,0-0.6,0-0.8,0c0,1.4,0,2.8,0,4.2c0.2,0,0.5,0,0.7,0C234.1,35.7,234.1,34.3,234.2,32.9z"/>
<path class="st0" d="M229.1,32.9c-0.3,0-0.5,0-0.8,0c0,1.4,0,2.8,0,4.2c0.2,0,0.5,0,0.8,0C229,35.7,229,34.3,229.1,32.9z"/>
<path class="st0" d="M235,32.9c0,1.4,0,2.8,0,4.2c0.3,0,0.6,0,0.8,0c0-1.4,0-2.8,0.1-4.2C235.6,32.9,235.3,32.9,235,32.9z"/>
<path class="st0" d="M230.8,32.9c-0.3,0-0.5,0-0.8,0c0,1.4,0,2.8,0,4.2c0.2,0,0.5,0,0.8,0C230.8,35.7,230.8,34.3,230.8,32.9z"/>
<path d="M98.4,44.2c-0.6,0-1.1-0.6-0.8-1.2l2.8-10.7v-11c0-0.6,0.6-1.2,1.2-1.2h8.4c0.6,0,1.2,0.6,1.2,1.2V31c0,0.7-0.2,1.5-0.6,2.1
	L104,43.3c-0.4,0.6-1.1,0.9-1.8,0.9H98.4z"/>
</svg>
