<svg xmlns="http://www.w3.org/2000/svg" viewBox="0 0 454.35 91.4"><defs><style>.cls-1{fill:#1d1d1b;}.cls-2{fill:#51ae32;}</style></defs><g id="Vrstva_2" data-name="Vrstva 2"><g id="Vrstva_2-2" data-name="Vrstva 2"><path class="cls-1" d="M95.47,34a.88.88,0,0,1-.83-1.19l2.85-10.68v-11a1.27,1.27,0,0,1,1.19-1.18h8.42a1.27,1.27,0,0,1,1.19,1.18v9.73A4.49,4.49,0,0,1,107.7,23l-6.65,10.09a2.1,2.1,0,0,1-1.78,1Z"/><path class="cls-2" d="M11.77.17v91.2H0V.17Z"/><path class="cls-1" d="M109.18,77.85a31.24,31.24,0,0,0,15.7,4.73c8.66,0,12.72-4.33,12.72-9.74,0-5.68-3.38-8.79-12.18-12-11.77-4.2-17.32-10.69-17.32-18.54,0-10.55,8.53-19.21,22.6-19.21a32.73,32.73,0,0,1,16.1,4.05l-3,8.66A25.57,25.57,0,0,0,130.43,32c-7,0-11,4.06-11,8.93,0,5.41,3.92,7.85,12.45,11.09,11.36,4.33,17.18,10,17.18,19.76,0,11.5-8.93,19.62-24.49,19.62-7.17,0-13.8-1.76-18.4-4.47Z"/><path class="cls-1" d="M162.78,0H211.9V9.88H174.56V40.19h34.5v9.74h-34.5V91.2H162.78Z"/><path class="cls-1" d="M265.32,25.91,274.66,40c2.44,3.66,4.47,7,6.63,10.69h.41c2.16-3.92,4.33-7.3,6.49-10.82l9.2-13.94h12.86L287.92,57.57l23,33.83H297.39l-9.6-14.75c-2.58-3.79-4.74-7.44-7-11.36h-.27c-2.17,3.92-4.47,7.44-6.9,11.36L264.11,91.4H251L274.25,58,252.06,25.91Z"/><path class="cls-1" d="M327,59.47c.27,16.1,10.55,22.73,22.46,22.73,8.53,0,13.67-1.49,18.13-3.38l2,8.52c-4.19,1.9-11.36,4.06-21.78,4.06-20.16,0-32.21-13.26-32.21-33s11.64-35.32,30.72-35.32c21.38,0,27.06,18.81,27.06,30.85a46.27,46.27,0,0,1-.4,5.55Zm34.91-8.53c.14-7.57-3.11-19.35-16.51-19.35-12,0-17.32,11.1-18.27,19.35Z"/><path class="cls-2" d="M453.6,78.72V0H441.17V40a33.85,33.85,0,1,0,0,35.06v3.64l.75,12.68h12.43Zm-17-35.31h-8.86c-.62-2-1.2-4.06-1.85-6a31,31,0,0,0-2.56-5.7A28,28,0,0,1,436.64,43.41Zm-33-3.5a24,24,0,0,1,3.37-7,9.16,9.16,0,0,1,3.5-3.21,4.32,4.32,0,0,1,4.88.93,16.6,16.6,0,0,1,4.09,5.78,35.84,35.84,0,0,1,2.26,6.69,1.37,1.37,0,0,1,0,.3H402.61C403,42.21,403.27,41.06,403.63,39.91Zm-2.45-8.36a41.21,41.21,0,0,0-4.42,11.87h-8.95A28.49,28.49,0,0,1,401.18,31.55Zm-16,34a27.34,27.34,0,0,1-1-10.52c.2-1.87.68-3.7,1-5.54,0-.26.13-.46.49-.45h9.87l.29,0a68.51,68.51,0,0,0,0,16.87,2.76,2.76,0,0,1-.37,0h-9.71A.51.51,0,0,1,385.15,65.58Zm2.64,6.08c3,0,5.83,0,8.68,0,.33,0,.33.21.39.41.52,1.81,1,3.64,1.56,5.43A28.21,28.21,0,0,0,401,83.24c0,.06.07.13.16.29A28.4,28.4,0,0,1,387.79,71.66Zm33.48,2a26.94,26.94,0,0,1-3.61,8.17,11.13,11.13,0,0,1-3,3.1,4.22,4.22,0,0,1-5.09-.12,12,12,0,0,1-3.08-3.4,30.85,30.85,0,0,1-3.83-9.6.73.73,0,0,1,0-.18h19.1C421.62,72.37,421.45,73,421.27,73.7ZM401.58,66a56.92,56.92,0,0,1,0-16.89h21.27a56.17,56.17,0,0,1,0,16.89Zm21.8,17.45a43.41,43.41,0,0,0,4.31-11.75h8.95A28,28,0,0,1,423.38,83.44ZM439.16,66H428.63a68.18,68.18,0,0,0,0-16.89h10.52A28.45,28.45,0,0,1,439.16,66Z"/><path class="cls-2" d="M222.79,13.21c3.2,0,6.4,0,9.59,0H237a1.14,1.14,0,0,0,1.1-1.06v-6h0c0-1.69,0-3.38,0-5.07A1.18,1.18,0,0,0,237,0h-14.2a1.19,1.19,0,0,0-1.11,1.11v11A1.18,1.18,0,0,0,222.79,13.21Zm.33-8.56c0-.11.19-.19.28-.29a.19.19,0,0,1,.16-.07h2.5c.07,0,.09,0,.09-.09,0-.31,0-.62,0-.94l0-.4h1.34l.18-1.43H232s.06,0,.06.06c.05.34.08.67.13,1,0,.12,0,.24.05.37h1.33s0,.06,0,.1c0,.4,0,.81.07,1.22,0,.08,0,.1.11.1h2.49a.19.19,0,0,1,.15.06,2.61,2.61,0,0,1,.23.24.22.22,0,0,1,.06.13V6.18h0v.38h0c0,.07-.18.1-.27.14a.15.15,0,0,0-.08.1.43.43,0,0,0,0,.05c0,.36,0,.72,0,1.08,0,0,0,0,0,.08v.37c0,.11,0,.24,0,.32s.18.11.27.15a.11.11,0,0,1,.06.06v2.42a.44.44,0,0,1,0,.13l-.26.26s0,0,0,0h-2.49V8.22h-.72v3.54h-.71V8.22h-.71v3.55H231V8.22h-.72v3.55h-.71V8.22h-.72v3.55h-.71V8.22h-.71v3.55h-.71V8.21H226v3.56h-2.44a.21.21,0,0,1-.1,0,3.13,3.13,0,0,1-.25-.26.2.2,0,0,1-.06-.13V9.24c0-.11,0-.23,0-.31s.17-.1.26-.14.08-.07.08-.14V7.11c0-.11,0-.24,0-.32s-.18-.11-.27-.15a.1.1,0,0,1-.07-.11V5A1.26,1.26,0,0,1,223.12,4.65Z"/><path class="cls-2" d="M51.21,10.14H23.51V.15H90.92v10H63.09V91.2H51.21Z"/><path class="cls-2" d="M238.57,38.68a2.87,2.87,0,0,0,0-.35,2,2,0,0,1-.05-.34c0-.29-.07-.58-.11-.85l-6.37,0-4.25,0-6.29,0s0,0,0,.06c-.07.51-.13,1-.19,1.53a.67.67,0,0,0,0,.2s3.31,17.68,3.5,17.79l3,0v0h0V91.38H232V56.63h2.93s3.39-14.2,3.62-17.65A2.71,2.71,0,0,0,238.57,38.68Z"/><path class="cls-2" d="M222.77,36.41l5.07,0v0c0-.39,0-.78,0-1.18,0-.07,0-.07-.09-.08-.49-.13-1-.27-1.49-.39-.09,0-.11,0-.11-.14l0-7v-.13h-1.68c0-1.62,0-3.24,0-4.88H223l-.11,0,0,0s0,.08,0,.11q0,6.78,0,13.54Z"/><path class="cls-2" d="M228.63,36.43h2.55c0-2,0,.08,0-1.89l1.68-.43,0-6.53L227,27.52c0,2.21,0,4.4,0,6.59l1.69.42C228.67,36.51,228.64,34.46,228.63,36.43Z"/><path class="cls-2" d="M232.05,35.29v1.18l5.07,0q0-6.87.07-13.79l-1.66,0c0,1.59,0,3.22,0,4.86h-1.73c0,2.4,0,4.79,0,7.2l-1.6.38C232.08,35.18,232.05,35.21,232.05,35.29Z"/><path class="cls-2" d="M234.66,22.68l-.8.05c0,1.38,0,2.79,0,4.21h.82Z"/><path class="cls-2" d="M229.51,26.91c0-1.4.05-2.81.07-4.22h-.84c0,1.4,0,2.81,0,4.21Z"/><path class="cls-2" d="M231.19,26.92c0-1.41.05-2.82.07-4.22h-.84l0,4.21Z"/><path class="cls-2" d="M226.15,26.89V22.67h-.83c0,1.41,0,2.82,0,4.22Z"/><path class="cls-2" d="M233,22.71h-.82c0,1.4,0,2.81,0,4.21h.79C232.9,25.5,232.92,24.09,233,22.71Z"/><path class="cls-2" d="M227.86,26.9V22.69H227l0,4.22Z"/></g></g></svg>