<svg xmlns="http://www.w3.org/2000/svg" viewBox="0 0 448.46 93.9"><defs><style>.cls-1{fill:#1d1d1b;}.cls-2{fill:#51ae32;}</style></defs><g id="Vrstva_2" data-name="Vrstva 2"><g id="Vrstva_2-2" data-name="Vrstva 2"><path class="cls-1" d="M11.77,2.67v91.2H0V2.67Z"/><path class="cls-1" d="M103.3,80.35A31.2,31.2,0,0,0,119,85.08c8.67,0,12.72-4.33,12.72-9.74,0-5.68-3.38-8.79-12.17-12-11.78-4.2-17.32-10.69-17.32-18.54,0-10.55,8.52-19.21,22.59-19.21a32.8,32.8,0,0,1,16.11,4.05l-3,8.66a25.54,25.54,0,0,0-13.4-3.78c-7,0-11,4.06-11,8.93,0,5.41,3.93,7.84,12.45,11.09,11.37,4.33,17.19,10,17.19,19.76,0,11.5-8.93,19.62-24.5,19.62-7.17,0-13.8-1.76-18.4-4.47Z"/><path class="cls-1" d="M156.9,2.5H206v9.88H168.67V42.69h34.5v9.74h-34.5V93.7H156.9Z"/><path class="cls-1" d="M259.44,28.41l9.33,14.07c2.44,3.66,4.47,7,6.63,10.69h.41c2.17-3.92,4.33-7.3,6.5-10.82l9.2-13.94h12.85L282,60.07,305,93.9H291.51L281.9,79.15c-2.57-3.79-4.74-7.44-7-11.36h-.27c-2.16,3.92-4.46,7.44-6.9,11.36L258.22,93.9H245.09l23.28-33.42L246.18,28.41Z"/><path class="cls-1" d="M321.14,62c.27,16.1,10.56,22.73,22.47,22.73,8.52,0,13.66-1.49,18.13-3.38l2,8.52c-4.2,1.9-11.37,4.06-21.79,4.06-20.16,0-32.2-13.26-32.2-33s11.63-35.32,30.71-35.32c21.38,0,27.07,18.81,27.07,30.85a45.82,45.82,0,0,1-.41,5.55Zm34.91-8.53c.14-7.57-3.11-19.35-16.5-19.35-12.05,0-17.32,11.1-18.27,19.35Z"/><path class="cls-2" d="M52.21,11.51a8.52,8.52,0,0,0-4.76,15.88,2.26,2.26,0,0,1,1.4,2.23c-.05,14.26,0,28.53,0,42.79,0,2.51,0,18.88,0,21.47h5.77c0-1.08,0-15.91,0-16.88q0-23.62,0-47.26a2,2,0,0,1,1.15-2.17A8.38,8.38,0,0,0,60.08,18,8.54,8.54,0,0,0,52.21,11.51Z"/><path class="cls-2" d="M75.53.12,71.74,4.24c6.7,7.39,8.71,18.68.06,28.89l3.88,4C86.49,26.6,85.21,8.77,75.53.12Z"/><path class="cls-2" d="M28.07,0c-10.81,10.53-9.82,28.29-.37,36.79L31.86,33A20.9,20.9,0,0,1,26.08,18.5,21.37,21.37,0,0,1,31.86,4.27Z"/><path class="cls-2" d="M63.43,12.45c3.05,4.06,3.18,8.21,0,12.28l3.87,4.09c5.68-5.06,5.69-15,0-20.43Z"/><path class="cls-2" d="M36.26,9.39c-6.06,6.17-5.18,15.91.13,20.44L39.73,26C39.1,23.83,38,21.74,38,19.66s1.14-4.27,1.79-6.48Z"/><path class="cls-2" d="M447.71,81.22V2.5H435.28v40a33.85,33.85,0,1,0,0,35.06v3.64L436,93.9h12.43ZM430.76,45.91h-8.87c-.62-2-1.2-4.06-1.84-6a31.65,31.65,0,0,0-2.56-5.7A28,28,0,0,1,430.76,45.91Zm-33-3.5a24.49,24.49,0,0,1,3.37-7,9.18,9.18,0,0,1,3.51-3.21,4.3,4.3,0,0,1,4.87.93,16.6,16.6,0,0,1,4.09,5.78,35.84,35.84,0,0,1,2.26,6.69,1.32,1.32,0,0,1,0,.3H396.73C397.07,44.71,397.39,43.56,397.74,42.41Zm-2.44-8.36a41.53,41.53,0,0,0-4.43,11.87h-8.95A28.47,28.47,0,0,1,395.3,34.05Zm-16,34a27.14,27.14,0,0,1-1-10.52c.19-1.87.67-3.7,1-5.54.05-.26.13-.46.49-.45h9.87l.3,0a68.51,68.51,0,0,0,0,16.87,2.46,2.46,0,0,1-.37,0h-9.71C379.48,68.53,379.36,68.4,379.26,68.08Zm2.65,6.08c3,0,5.82,0,8.68,0,.33,0,.33.21.39.41.51,1.81,1,3.64,1.56,5.43a27.16,27.16,0,0,0,2.59,5.74c0,.06.06.13.15.29A28.33,28.33,0,0,1,381.91,74.16Zm33.47,2a26.7,26.7,0,0,1-3.61,8.17,11.13,11.13,0,0,1-3,3.1,4.22,4.22,0,0,1-5.09-.12,12.35,12.35,0,0,1-3.08-3.4,30.59,30.59,0,0,1-3.82-9.6.61.61,0,0,1,0-.18h19.11C415.73,74.87,415.56,75.54,415.38,76.2Zm-19.69-7.71a56.92,56.92,0,0,1,0-16.89H417a55.84,55.84,0,0,1,0,16.89Zm21.8,17.45a42.76,42.76,0,0,0,4.31-11.75h9A28,28,0,0,1,417.49,85.94ZM433.28,68.5H422.75a67.7,67.7,0,0,0,0-16.89h10.53A28.53,28.53,0,0,1,433.28,68.5Z"/><path class="cls-2" d="M216.91,13.21c3.19,0,6.39,0,9.59,0h4.61a1.14,1.14,0,0,0,1.1-1.06v-6h0q0-2.53,0-5.07A1.18,1.18,0,0,0,231.1,0H216.9a1.19,1.19,0,0,0-1.11,1.11q0,5.49,0,11A1.2,1.2,0,0,0,216.91,13.21Zm.33-8.56c0-.11.18-.19.27-.29a.22.22,0,0,1,.17-.07h2.49c.07,0,.09,0,.09-.09l.06-.94,0-.4h1.33l.18-1.43h4.22s.06,0,.06.06c.05.34.09.67.13,1,0,.12,0,.24,0,.37h1.33a.31.31,0,0,1,0,.1c0,.4.05.81.07,1.22,0,.08,0,.1.11.1h2.5a.22.22,0,0,1,.15.06l.23.24a.21.21,0,0,1,.05.13V6.18h0v.38h0c-.05.07-.17.1-.27.14s-.07.06-.07.1a.07.07,0,0,0,0,.05V7.94a.25.25,0,0,0,0,.08v.37c0,.11,0,.24,0,.32s.17.11.27.15.05,0,.05.06v2.42a.44.44,0,0,1-.05.13l-.26.26a.05.05,0,0,1-.05,0h-2.49V11.7c0-1.13,0-2.26,0-3.39V8.22h-.71v3.54h-.71V8.22h-.72v3.55h-.71V8.22h-.72v3.55h-.71V8.22h-.72v3.55h-.71V8.22h-.71v3.55h-.71V8.21h-.72v3.56h-2.44a.15.15,0,0,1-.09,0,2.13,2.13,0,0,1-.26-.26.19.19,0,0,1-.05-.13c0-.7,0-1.4,0-2.1,0-.11,0-.23,0-.31s.17-.1.27-.14a.12.12,0,0,0,.07-.14V7.11c0-.11,0-.24,0-.32s-.17-.11-.27-.15a.1.1,0,0,1-.07-.11c0-.5,0-1,0-1.49A1,1,0,0,1,217.24,4.65Z"/><path class="cls-2" d="M232.66,40.83c0-.11,0-.23,0-.34,0-.29-.07-.58-.11-.85l-6.36,0,0,4.86-4.25,0c0-1.62,0-3.25,0-4.87l-6.29,0a.15.15,0,0,1,0,.06c-.06.51-.13,1-.19,1.53a.67.67,0,0,0,0,.2c.35,1.74.69,3.49,1,5.23l.12.62,5.31,0c0,.43,0,.85,0,1.27h-5.12c.11.57.23,1.14.34,1.71l4.77,0,0,1.26h-4.47c.12.57.23,1.13.34,1.71h4.14c0,.43,0,.85,0,1.28H218c.11.56.23,1.12.34,1.69l3.55,0c0,.36,0,.72,0,1.09h0v.21h-3.3l.33,1.68,3,0s0,0,0,0h0V93.7h4.26V59.1l2.94,0c.11-.57.23-1.12.35-1.69l-3.29,0v-.14c0-.38,0-.75,0-1.13h3.54c.12-.55.23-1.11.35-1.65l-3.88-.06V53.17l4.14,0,.35-1.66-4.48-.06V50.19l4.75,0c.11-.55.23-1.11.35-1.68l-5.11,0c0-.42,0-.84,0-1.27l5.34,0c0-.06,0-.11,0-.16q.54-2.64,1.09-5.28A2.31,2.31,0,0,0,232.66,40.83Z"/><path class="cls-2" d="M216.89,38.91l5.06,0v-1.2c0-.07,0-.07-.09-.08l-1.5-.39a.12.12,0,0,1-.11-.14q0-3.48,0-7s0-.08,0-.13h-1.67c0-1.62,0-3.24,0-4.88h-1.53l-.11,0,0,0a.45.45,0,0,1,0,.11q0,6.78-.05,13.54S216.89,38.88,216.89,38.91Z"/><path class="cls-2" d="M225.32,43c0-2,0-3.94,0-5.91l1.67-.43,0-6.53L221.14,30c0,2.21,0,4.4,0,6.59l1.7.42,0,5.92Z"/><path class="cls-2" d="M231.24,39q0-6.87.07-13.79l-1.66,0c0,1.59,0,3.22,0,4.86H227.9c0,2.4,0,4.79,0,7.2l-1.61.38c-.08,0-.11.05-.11.13,0,.37,0,.74,0,1.11,0,0,0,.05,0,.07Z"/><path class="cls-2" d="M228,25.23c0,1.38,0,2.79,0,4.21h.82c0-1.41,0-2.82,0-4.26Z"/><path class="cls-2" d="M223.69,25.19h-.84l0,4.21h.75Z"/><path class="cls-2" d="M225.38,25.2h-.84c0,1.4,0,2.81,0,4.21h.75C225.33,28,225.35,26.6,225.38,25.2Z"/><path class="cls-2" d="M220.26,25.17h-.83c0,1.41,0,2.82,0,4.22h.81Z"/><path class="cls-2" d="M226.24,25.2l0,4.21H227c0-1.41,0-2.82.07-4.2Z"/><path class="cls-2" d="M222,25.19h-.83l0,4.22h.8Z"/><path class="cls-1" d="M89.59,36.5a.88.88,0,0,1-.83-1.19L91.6,24.63v-11a1.28,1.28,0,0,1,1.19-1.18h8.43a1.27,1.27,0,0,1,1.18,1.18v9.73a4.38,4.38,0,0,1-.59,2.14L95.17,35.55a2.11,2.11,0,0,1-1.78,1Z"/></g></g></svg>